<mxfile host="app.diagrams.net" modified="2023-09-06T06:40:54.309Z" agent="Mozilla/5.0 (Macintosh; Intel Mac OS X 10_15_7) AppleWebKit/605.1.15 (KHTML, like Gecko) Version/16.5.1 Safari/605.1.15" etag="isMb_UUCmBRSsgFVBp7r" version="21.7.2" type="device">
  <diagram name="Page-1" id="42789a77-a242-8287-6e28-9cd8cfd52e62">
    <mxGraphModel dx="1194" dy="700" grid="1" gridSize="10" guides="1" tooltips="1" connect="1" arrows="1" fold="1" page="1" pageScale="1" pageWidth="1100" pageHeight="850" background="none" math="0" shadow="0">
      <root>
        <mxCell id="0" />
        <mxCell id="1" parent="0" />
        <mxCell id="1ea317790d2ca983-12" style="edgeStyle=none;rounded=1;html=1;labelBackgroundColor=none;startArrow=none;startFill=0;startSize=5;endArrow=classicThin;endFill=1;endSize=5;jettySize=auto;orthogonalLoop=1;strokeColor=#B3B3B3;strokeWidth=1;fontFamily=Verdana;fontSize=12" parent="1" source="1ea317790d2ca983-1" target="1ea317790d2ca983-2" edge="1">
          <mxGeometry relative="1" as="geometry" />
        </mxCell>
        <mxCell id="1ea317790d2ca983-13" value="" style="edgeStyle=none;rounded=1;html=1;labelBackgroundColor=none;startArrow=none;startFill=0;startSize=5;endArrow=classicThin;endFill=1;endSize=5;jettySize=auto;orthogonalLoop=1;strokeColor=#B3B3B3;strokeWidth=1;fontFamily=Verdana;fontSize=12" parent="1" source="1ea317790d2ca983-1" target="1ea317790d2ca983-9" edge="1">
          <mxGeometry x="0.0061" relative="1" as="geometry">
            <mxPoint as="offset" />
          </mxGeometry>
        </mxCell>
        <mxCell id="1ea317790d2ca983-14" value="" style="edgeStyle=none;rounded=1;html=1;labelBackgroundColor=none;startArrow=none;startFill=0;startSize=5;endArrow=classicThin;endFill=1;endSize=5;jettySize=auto;orthogonalLoop=1;strokeColor=#B3B3B3;strokeWidth=1;fontFamily=Verdana;fontSize=12" parent="1" source="1ea317790d2ca983-1" target="1ea317790d2ca983-3" edge="1">
          <mxGeometry x="-0.0032" relative="1" as="geometry">
            <mxPoint as="offset" />
          </mxGeometry>
        </mxCell>
        <mxCell id="1ea317790d2ca983-1" value="Медицина" style="ellipse;whiteSpace=wrap;html=1;rounded=0;shadow=1;comic=0;labelBackgroundColor=none;strokeWidth=1;fontFamily=Verdana;fontSize=12;align=center;" parent="1" vertex="1">
          <mxGeometry x="505" y="215" width="90" height="60" as="geometry" />
        </mxCell>
        <mxCell id="1ea317790d2ca983-2" value="&lt;span&gt;Медицинские ферменты&lt;/span&gt;" style="ellipse;whiteSpace=wrap;html=1;rounded=0;shadow=1;comic=0;labelBackgroundColor=none;strokeWidth=1;fontFamily=Verdana;fontSize=12;align=center;" parent="1" vertex="1">
          <mxGeometry x="350" y="240" width="102.5" height="70" as="geometry" />
        </mxCell>
        <mxCell id="1ea317790d2ca983-3" value="&lt;span&gt;Кровезаменители&lt;/span&gt;" style="ellipse;whiteSpace=wrap;html=1;rounded=0;shadow=1;comic=0;labelBackgroundColor=none;strokeWidth=1;fontFamily=Verdana;fontSize=12;align=center;" parent="1" vertex="1">
          <mxGeometry x="652.5" y="240" width="130" height="60" as="geometry" />
        </mxCell>
        <mxCell id="1ea317790d2ca983-9" value="Антибиотики" style="ellipse;whiteSpace=wrap;html=1;rounded=0;shadow=1;comic=0;labelBackgroundColor=none;strokeWidth=1;fontFamily=Verdana;fontSize=12;align=center;" parent="1" vertex="1">
          <mxGeometry x="356.25" y="165" width="90" height="50" as="geometry" />
        </mxCell>
        <mxCell id="h2QBe4KLrRRm_y7NqaRW-1" value="&lt;span&gt;Сыворотки&lt;/span&gt;" style="ellipse;whiteSpace=wrap;html=1;rounded=0;shadow=1;comic=0;labelBackgroundColor=none;strokeWidth=1;fontFamily=Verdana;fontSize=12;align=center;" vertex="1" parent="1">
          <mxGeometry x="500" y="130" width="100" height="40" as="geometry" />
        </mxCell>
        <mxCell id="h2QBe4KLrRRm_y7NqaRW-2" value="&lt;span&gt;Монокланальные антитела&lt;/span&gt;" style="ellipse;whiteSpace=wrap;html=1;rounded=0;shadow=1;comic=0;labelBackgroundColor=none;strokeWidth=1;fontFamily=Verdana;fontSize=12;align=center;" vertex="1" parent="1">
          <mxGeometry x="642.5" y="160" width="140" height="60" as="geometry" />
        </mxCell>
        <mxCell id="h2QBe4KLrRRm_y7NqaRW-3" value="Промышленная биотехнология" style="ellipse;whiteSpace=wrap;html=1;rounded=0;shadow=1;comic=0;labelBackgroundColor=none;strokeWidth=1;fontFamily=Verdana;fontSize=12;align=center;" vertex="1" parent="1">
          <mxGeometry x="493" y="380" width="115" height="75" as="geometry" />
        </mxCell>
        <mxCell id="h2QBe4KLrRRm_y7NqaRW-4" value="Еда" style="ellipse;whiteSpace=wrap;html=1;rounded=0;shadow=1;comic=0;labelBackgroundColor=none;strokeWidth=1;fontFamily=Verdana;fontSize=12;align=center;" vertex="1" parent="1">
          <mxGeometry x="685" y="396.5" width="75" height="42" as="geometry" />
        </mxCell>
        <mxCell id="h2QBe4KLrRRm_y7NqaRW-5" value="Органические кислоты" style="ellipse;whiteSpace=wrap;html=1;rounded=0;shadow=1;comic=0;labelBackgroundColor=none;strokeWidth=1;fontFamily=Verdana;fontSize=12;align=center;" vertex="1" parent="1">
          <mxGeometry x="792.5" y="330" width="110" height="50" as="geometry" />
        </mxCell>
        <mxCell id="h2QBe4KLrRRm_y7NqaRW-6" value="Кисломолочные продукты" style="ellipse;whiteSpace=wrap;html=1;rounded=0;shadow=1;comic=0;labelBackgroundColor=none;strokeWidth=1;fontFamily=Verdana;fontSize=12;align=center;" vertex="1" parent="1">
          <mxGeometry x="790" y="420" width="112.5" height="50" as="geometry" />
        </mxCell>
        <mxCell id="h2QBe4KLrRRm_y7NqaRW-7" value="Сельское хозяйство" style="ellipse;whiteSpace=wrap;html=1;rounded=0;shadow=1;comic=0;labelBackgroundColor=none;strokeWidth=1;fontFamily=Verdana;fontSize=12;align=center;" vertex="1" parent="1">
          <mxGeometry x="515" y="490" width="95" height="60" as="geometry" />
        </mxCell>
        <mxCell id="h2QBe4KLrRRm_y7NqaRW-8" value="Силосные закваски" style="ellipse;whiteSpace=wrap;html=1;rounded=0;shadow=1;comic=0;labelBackgroundColor=none;strokeWidth=1;fontFamily=Verdana;fontSize=12;align=center;" vertex="1" parent="1">
          <mxGeometry x="515" y="590" width="95" height="50" as="geometry" />
        </mxCell>
        <mxCell id="h2QBe4KLrRRm_y7NqaRW-10" value="" style="edgeStyle=none;rounded=1;html=1;labelBackgroundColor=none;startArrow=none;startFill=0;startSize=5;endArrow=classicThin;endFill=1;endSize=5;jettySize=auto;orthogonalLoop=1;strokeColor=#B3B3B3;strokeWidth=1;fontFamily=Verdana;fontSize=12;entryX=0.061;entryY=0.717;entryDx=0;entryDy=0;entryPerimeter=0;exitX=1;exitY=0;exitDx=0;exitDy=0;" edge="1" parent="1" source="1ea317790d2ca983-1" target="h2QBe4KLrRRm_y7NqaRW-2">
          <mxGeometry x="-0.0032" relative="1" as="geometry">
            <mxPoint x="604" y="250" as="sourcePoint" />
            <mxPoint x="712" y="237" as="targetPoint" />
            <mxPoint as="offset" />
          </mxGeometry>
        </mxCell>
        <mxCell id="h2QBe4KLrRRm_y7NqaRW-11" value="" style="edgeStyle=none;rounded=1;html=1;labelBackgroundColor=none;startArrow=none;startFill=0;startSize=5;endArrow=classicThin;endFill=1;endSize=5;jettySize=auto;orthogonalLoop=1;strokeColor=#B3B3B3;strokeWidth=1;fontFamily=Verdana;fontSize=12;entryX=0.5;entryY=1;entryDx=0;entryDy=0;exitX=0.5;exitY=0;exitDx=0;exitDy=0;" edge="1" parent="1" source="1ea317790d2ca983-1" target="h2QBe4KLrRRm_y7NqaRW-1">
          <mxGeometry x="-0.0032" relative="1" as="geometry">
            <mxPoint x="614" y="260" as="sourcePoint" />
            <mxPoint x="722" y="247" as="targetPoint" />
            <mxPoint as="offset" />
          </mxGeometry>
        </mxCell>
        <mxCell id="h2QBe4KLrRRm_y7NqaRW-12" value="" style="edgeStyle=none;rounded=1;html=1;labelBackgroundColor=none;startArrow=none;startFill=0;startSize=5;endArrow=classicThin;endFill=1;endSize=5;jettySize=auto;orthogonalLoop=1;strokeColor=#B3B3B3;strokeWidth=1;fontFamily=Verdana;fontSize=12;exitX=0.5;exitY=0;exitDx=0;exitDy=0;entryX=0.5;entryY=1;entryDx=0;entryDy=0;" edge="1" parent="1" source="h2QBe4KLrRRm_y7NqaRW-3" target="1ea317790d2ca983-1">
          <mxGeometry x="-0.0032" relative="1" as="geometry">
            <mxPoint x="624" y="270" as="sourcePoint" />
            <mxPoint x="732" y="257" as="targetPoint" />
            <mxPoint as="offset" />
          </mxGeometry>
        </mxCell>
        <mxCell id="h2QBe4KLrRRm_y7NqaRW-13" value="Энтамопатогенные препараты" style="ellipse;whiteSpace=wrap;html=1;rounded=0;shadow=1;comic=0;labelBackgroundColor=none;strokeWidth=1;fontFamily=Verdana;fontSize=12;align=center;" vertex="1" parent="1">
          <mxGeometry x="360" y="590" width="135" height="50" as="geometry" />
        </mxCell>
        <mxCell id="h2QBe4KLrRRm_y7NqaRW-14" value="Минеральные удобрения" style="ellipse;whiteSpace=wrap;html=1;rounded=0;shadow=1;comic=0;labelBackgroundColor=none;strokeWidth=1;fontFamily=Verdana;fontSize=12;align=center;" vertex="1" parent="1">
          <mxGeometry x="630" y="580" width="97.5" height="60" as="geometry" />
        </mxCell>
        <mxCell id="h2QBe4KLrRRm_y7NqaRW-15" value="" style="edgeStyle=none;rounded=1;html=1;labelBackgroundColor=none;startArrow=none;startFill=0;startSize=5;endArrow=classicThin;endFill=1;endSize=5;jettySize=auto;orthogonalLoop=1;strokeColor=#B3B3B3;strokeWidth=1;fontFamily=Verdana;fontSize=12;exitX=0.5;exitY=1;exitDx=0;exitDy=0;entryX=0.5;entryY=0;entryDx=0;entryDy=0;" edge="1" parent="1" source="h2QBe4KLrRRm_y7NqaRW-7" target="h2QBe4KLrRRm_y7NqaRW-8">
          <mxGeometry x="-0.0032" relative="1" as="geometry">
            <mxPoint x="634" y="280" as="sourcePoint" />
            <mxPoint x="742" y="267" as="targetPoint" />
            <mxPoint as="offset" />
          </mxGeometry>
        </mxCell>
        <mxCell id="h2QBe4KLrRRm_y7NqaRW-16" value="" style="edgeStyle=none;rounded=1;html=1;labelBackgroundColor=none;startArrow=none;startFill=0;startSize=5;endArrow=classicThin;endFill=1;endSize=5;jettySize=auto;orthogonalLoop=1;strokeColor=#B3B3B3;strokeWidth=1;fontFamily=Verdana;fontSize=12;" edge="1" parent="1" source="h2QBe4KLrRRm_y7NqaRW-7" target="h2QBe4KLrRRm_y7NqaRW-13">
          <mxGeometry x="-0.0032" relative="1" as="geometry">
            <mxPoint x="644" y="290" as="sourcePoint" />
            <mxPoint x="752" y="277" as="targetPoint" />
            <mxPoint as="offset" />
          </mxGeometry>
        </mxCell>
        <mxCell id="h2QBe4KLrRRm_y7NqaRW-17" value="" style="edgeStyle=none;rounded=1;html=1;labelBackgroundColor=none;startArrow=none;startFill=0;startSize=5;endArrow=classicThin;endFill=1;endSize=5;jettySize=auto;orthogonalLoop=1;strokeColor=#B3B3B3;strokeWidth=1;fontFamily=Verdana;fontSize=12" edge="1" parent="1" source="h2QBe4KLrRRm_y7NqaRW-7" target="h2QBe4KLrRRm_y7NqaRW-14">
          <mxGeometry x="-0.0032" relative="1" as="geometry">
            <mxPoint x="654" y="300" as="sourcePoint" />
            <mxPoint x="762" y="287" as="targetPoint" />
            <mxPoint as="offset" />
          </mxGeometry>
        </mxCell>
        <mxCell id="h2QBe4KLrRRm_y7NqaRW-18" value="Энергетика" style="ellipse;whiteSpace=wrap;html=1;rounded=0;shadow=1;comic=0;labelBackgroundColor=none;strokeWidth=1;fontFamily=Verdana;fontSize=12;align=center;" vertex="1" parent="1">
          <mxGeometry x="350" y="425" width="95" height="60" as="geometry" />
        </mxCell>
        <mxCell id="h2QBe4KLrRRm_y7NqaRW-19" value="Биогаз (метановое брожение)" style="ellipse;whiteSpace=wrap;html=1;rounded=0;shadow=1;comic=0;labelBackgroundColor=none;strokeWidth=1;fontFamily=Verdana;fontSize=12;align=center;" vertex="1" parent="1">
          <mxGeometry x="210" y="438.5" width="95" height="60" as="geometry" />
        </mxCell>
        <mxCell id="h2QBe4KLrRRm_y7NqaRW-20" value="" style="edgeStyle=none;rounded=1;html=1;labelBackgroundColor=none;startArrow=none;startFill=0;startSize=5;endArrow=classicThin;endFill=1;endSize=5;jettySize=auto;orthogonalLoop=1;strokeColor=#B3B3B3;strokeWidth=1;fontFamily=Verdana;fontSize=12" edge="1" parent="1" source="h2QBe4KLrRRm_y7NqaRW-3" target="h2QBe4KLrRRm_y7NqaRW-4">
          <mxGeometry x="-0.0032" relative="1" as="geometry">
            <mxPoint x="664" y="310" as="sourcePoint" />
            <mxPoint x="772" y="297" as="targetPoint" />
            <mxPoint as="offset" />
          </mxGeometry>
        </mxCell>
        <mxCell id="h2QBe4KLrRRm_y7NqaRW-21" value="" style="edgeStyle=none;rounded=1;html=1;labelBackgroundColor=none;startArrow=none;startFill=0;startSize=5;endArrow=classicThin;endFill=1;endSize=5;jettySize=auto;orthogonalLoop=1;strokeColor=#B3B3B3;strokeWidth=1;fontFamily=Verdana;fontSize=12" edge="1" parent="1" source="h2QBe4KLrRRm_y7NqaRW-4" target="h2QBe4KLrRRm_y7NqaRW-5">
          <mxGeometry x="-0.0032" relative="1" as="geometry">
            <mxPoint x="674" y="320" as="sourcePoint" />
            <mxPoint x="782" y="307" as="targetPoint" />
            <mxPoint as="offset" />
          </mxGeometry>
        </mxCell>
        <mxCell id="h2QBe4KLrRRm_y7NqaRW-22" value="" style="edgeStyle=none;rounded=1;html=1;labelBackgroundColor=none;startArrow=none;startFill=0;startSize=5;endArrow=classicThin;endFill=1;endSize=5;jettySize=auto;orthogonalLoop=1;strokeColor=#B3B3B3;strokeWidth=1;fontFamily=Verdana;fontSize=12" edge="1" parent="1" source="h2QBe4KLrRRm_y7NqaRW-4" target="h2QBe4KLrRRm_y7NqaRW-6">
          <mxGeometry x="-0.0032" relative="1" as="geometry">
            <mxPoint x="684" y="330" as="sourcePoint" />
            <mxPoint x="792" y="317" as="targetPoint" />
            <mxPoint as="offset" />
          </mxGeometry>
        </mxCell>
        <mxCell id="h2QBe4KLrRRm_y7NqaRW-24" value="Получение водорода" style="ellipse;whiteSpace=wrap;html=1;rounded=0;shadow=1;comic=0;labelBackgroundColor=none;strokeWidth=1;fontFamily=Verdana;fontSize=12;align=center;" vertex="1" parent="1">
          <mxGeometry x="255" y="360" width="95" height="60" as="geometry" />
        </mxCell>
        <mxCell id="h2QBe4KLrRRm_y7NqaRW-25" value="Получение спирта" style="ellipse;whiteSpace=wrap;html=1;rounded=0;shadow=1;comic=0;labelBackgroundColor=none;strokeWidth=1;fontFamily=Verdana;fontSize=12;align=center;" vertex="1" parent="1">
          <mxGeometry x="265" y="510" width="95" height="50" as="geometry" />
        </mxCell>
        <mxCell id="h2QBe4KLrRRm_y7NqaRW-26" value="" style="edgeStyle=none;rounded=1;html=1;labelBackgroundColor=none;startArrow=none;startFill=0;startSize=5;endArrow=classicThin;endFill=1;endSize=5;jettySize=auto;orthogonalLoop=1;strokeColor=#B3B3B3;strokeWidth=1;fontFamily=Verdana;fontSize=12" edge="1" parent="1" source="h2QBe4KLrRRm_y7NqaRW-3" target="h2QBe4KLrRRm_y7NqaRW-18">
          <mxGeometry x="-0.0032" relative="1" as="geometry">
            <mxPoint x="694" y="340" as="sourcePoint" />
            <mxPoint x="802" y="327" as="targetPoint" />
            <mxPoint as="offset" />
          </mxGeometry>
        </mxCell>
        <mxCell id="h2QBe4KLrRRm_y7NqaRW-27" value="" style="edgeStyle=none;rounded=1;html=1;labelBackgroundColor=none;startArrow=none;startFill=0;startSize=5;endArrow=classicThin;endFill=1;endSize=5;jettySize=auto;orthogonalLoop=1;strokeColor=#B3B3B3;strokeWidth=1;fontFamily=Verdana;fontSize=12" edge="1" parent="1" source="h2QBe4KLrRRm_y7NqaRW-18" target="h2QBe4KLrRRm_y7NqaRW-24">
          <mxGeometry x="-0.0032" relative="1" as="geometry">
            <mxPoint x="704" y="350" as="sourcePoint" />
            <mxPoint x="812" y="337" as="targetPoint" />
            <mxPoint as="offset" />
          </mxGeometry>
        </mxCell>
        <mxCell id="h2QBe4KLrRRm_y7NqaRW-28" value="" style="edgeStyle=none;rounded=1;html=1;labelBackgroundColor=none;startArrow=none;startFill=0;startSize=5;endArrow=classicThin;endFill=1;endSize=5;jettySize=auto;orthogonalLoop=1;strokeColor=#B3B3B3;strokeWidth=1;fontFamily=Verdana;fontSize=12" edge="1" parent="1" source="h2QBe4KLrRRm_y7NqaRW-18" target="h2QBe4KLrRRm_y7NqaRW-19">
          <mxGeometry x="-0.0032" relative="1" as="geometry">
            <mxPoint x="714" y="360" as="sourcePoint" />
            <mxPoint x="822" y="347" as="targetPoint" />
            <mxPoint as="offset" />
          </mxGeometry>
        </mxCell>
        <mxCell id="h2QBe4KLrRRm_y7NqaRW-29" value="" style="edgeStyle=none;rounded=1;html=1;labelBackgroundColor=none;startArrow=none;startFill=0;startSize=5;endArrow=classicThin;endFill=1;endSize=5;jettySize=auto;orthogonalLoop=1;strokeColor=#B3B3B3;strokeWidth=1;fontFamily=Verdana;fontSize=12" edge="1" parent="1" source="h2QBe4KLrRRm_y7NqaRW-18" target="h2QBe4KLrRRm_y7NqaRW-25">
          <mxGeometry x="-0.0032" relative="1" as="geometry">
            <mxPoint x="724" y="370" as="sourcePoint" />
            <mxPoint x="832" y="357" as="targetPoint" />
            <mxPoint as="offset" />
          </mxGeometry>
        </mxCell>
        <mxCell id="h2QBe4KLrRRm_y7NqaRW-30" value="" style="edgeStyle=none;rounded=1;html=1;labelBackgroundColor=none;startArrow=none;startFill=0;startSize=5;endArrow=classicThin;endFill=1;endSize=5;jettySize=auto;orthogonalLoop=1;strokeColor=#B3B3B3;strokeWidth=1;fontFamily=Verdana;fontSize=12" edge="1" parent="1" source="h2QBe4KLrRRm_y7NqaRW-3" target="h2QBe4KLrRRm_y7NqaRW-7">
          <mxGeometry x="-0.0032" relative="1" as="geometry">
            <mxPoint x="734" y="380" as="sourcePoint" />
            <mxPoint x="842" y="367" as="targetPoint" />
            <mxPoint as="offset" />
          </mxGeometry>
        </mxCell>
      </root>
    </mxGraphModel>
  </diagram>
</mxfile>
